<?xml version="1.0" standalone="no"?>
<!DOCTYPE svg PUBLIC "-//W3C//DTD SVG 20010904//EN"
 "http://www.w3.org/TR/2001/REC-SVG-20010904/DTD/svg10.dtd">
<svg version="1.0" xmlns="http://www.w3.org/2000/svg"
 width="295.000000pt" height="295.000000pt" viewBox="0 0 295.000000 295.000000"
 preserveAspectRatio="xMidYMid meet">
<metadata>
Created by potrace 1.11, written by Peter Selinger 2001-2013
</metadata>
<g transform="translate(0.000000,295.000000) scale(0.100000,-0.100000)"
fill="#000000" stroke="none">
<path d="M124 2920 c-33 -13 -99 -95 -112 -138 -8 -25 -12 -116 -12 -244 l0
-204 753 -1 c650 -1 765 -3 846 -17 361 -63 603 -323 646 -696 10 -84 8 -227
-5 -305 -14 -86 -53 -206 -86 -263 l-25 -42 401 0 400 0 -2 888 -3 887 -34 52
c-19 28 -51 61 -72 72 -37 21 -37 21 -1355 20 -726 0 -1328 -4 -1340 -9z"/>
<path d="M130 2154 l0 -41 125 0 c77 0 128 4 132 10 4 6 7 24 7 41 l0 29 -132
1 -132 1 0 -41z"/>
<path d="M560 2192 c-6 -2 -10 -21 -10 -41 l0 -38 133 1 132 1 1 33 c0 18 -4
36 -9 39 -10 6 -230 10 -247 5z"/>
<path d="M0 1098 c1 -798 2 -877 18 -920 20 -56 66 -108 119 -134 37 -18 84
-19 1328 -19 1233 0 1292 1 1327 18 52 26 87 64 114 122 23 47 24 61 24 261
l0 211 -1055 -1 c-1048 -1 -1055 -1 -1056 19 0 11 -1 311 -1 668 l-1 647 -408
0 -409 0 0 -872z"/>
<path d="M1192 1494 l3 -479 155 1 c176 1 241 15 325 68 130 83 195 221 195
411 0 222 -96 377 -275 445 -52 20 -84 24 -233 28 l-172 4 2 -478z"/>
<path d="M2132 830 c-1 -31 3 -40 16 -40 29 -1 216 -1 233 -1 11 1 15 11 14
39 l-1 37 -131 2 -131 2 0 -39z"/>
<path d="M2557 861 c-8 -16 -6 -61 4 -66 8 -6 150 -9 241 -6 13 1 17 10 16 40
l0 40 -129 -1 c-71 0 -131 -3 -132 -7z"/>
</g>
</svg>
